<svg width="28" height="38" viewBox="0 0 28 38" fill="none" xmlns="http://www.w3.org/2000/svg">
<path d="M8.17833 16.1611H7.077L6.47617 20.3537H7.45383C8.1025 20.3537 8.5855 20.1875 8.90283 19.8566C9.22017 19.5241 9.43367 18.9715 9.5445 18.1956C9.65183 17.4515 9.60283 16.9258 9.39983 16.6202C9.19567 16.3146 8.78967 16.1611 8.17833 16.1611ZM14 9.00598C6.2685 9.00598 0 13.4805 0 19C0 24.5195 6.2685 28.9956 14 28.9956C21.7315 28.9956 28 24.5195 28 19C28 13.4805 21.7315 9.00598 14 9.00598ZM10.1967 20.8034C9.89217 21.1992 9.52583 21.4969 9.12683 21.6758C8.73483 21.8468 8.23433 21.9355 7.62767 21.9355H6.24983L5.86833 24.5971H4.26067L5.69567 14.5809H8.78733C9.71717 14.5809 10.395 14.9118 10.822 15.5752C11.249 16.2371 11.3773 17.1617 11.207 18.3492C11.1418 18.8191 11.0216 19.2718 10.8512 19.6903C10.6843 20.0941 10.4662 20.4661 10.1967 20.8034ZM14.8913 21.9355L15.5248 17.5037C15.5983 17.0002 15.5703 16.6551 15.4455 16.473C15.3207 16.2893 15.0535 16.1975 14.644 16.1975H13.37L12.5487 21.9371H10.9527L12.3877 11.9193H13.9825L13.601 14.5825H15.022C15.9168 14.5825 16.5328 14.7946 16.8723 15.2174C17.2118 15.6401 17.3133 16.3257 17.1792 17.2741L16.5118 21.9355H14.8913ZM23.7545 18.3492C23.6903 18.8195 23.5701 19.2725 23.3987 19.6903C23.2318 20.0941 23.0137 20.4661 22.7442 20.8034C22.4395 21.198 22.0741 21.496 21.6743 21.6758C21.2823 21.8468 20.7818 21.9355 20.174 21.9355H18.7973L18.4158 24.5986H16.8082L18.2432 14.5825H21.3337C22.2635 14.5825 22.9413 14.9134 23.3683 15.5768C23.7953 16.2371 23.9248 17.1617 23.7545 18.3492ZM20.727 16.1611H19.6268L19.0248 20.3537H20.0025C20.6523 20.3537 21.1353 20.1875 21.4515 19.8566C21.7688 19.5241 21.9823 18.9715 22.0943 18.1956C22.2017 17.4515 22.1515 16.9258 21.9485 16.6202C21.7455 16.3146 21.3372 16.1611 20.727 16.1611Z" fill="black"/>
</svg>
