<svg width="102" height="18" viewBox="0 0 102 18" fill="none" xmlns="http://www.w3.org/2000/svg">
<path d="M9.18206 0L11.2436 5.94811H17.9147L12.5176 9.62424L14.5791 15.5724L9.18206 11.8962L3.78498 15.5724L5.84648 9.62424L0.449402 5.94811H7.12056L9.18206 0Z" fill="#FBB040"/>
<path d="M29.8414 0L31.9029 5.94811H38.574L33.1769 9.62424L35.2384 15.5724L29.8414 11.8962L24.4443 15.5724L26.5058 9.62424L21.1087 5.94811H27.7799L29.8414 0Z" fill="#FBB040"/>
<path d="M50.5024 0L52.5639 5.94811H59.235L53.838 9.62424L55.8995 15.5724L50.5024 11.8962L45.1053 15.5724L47.1668 9.62424L41.7697 5.94811H48.4409L50.5024 0Z" fill="#FBB040"/>
<path d="M71.1586 0L73.2201 5.94811H79.8913L74.4942 9.62424L76.5557 15.5724L71.1586 11.8962L65.7615 15.5724L67.823 9.62424L62.426 5.94811H69.0971L71.1586 0Z" fill="#FBB040"/>
<path d="M91.8194 0L93.8809 5.94811H100.552L95.1549 9.62424L97.2164 15.5724L91.8194 11.8962L86.4223 15.5724L88.4838 9.62424L83.0867 5.94811H89.7579L91.8194 0Z" fill="#FBB040"/>
</svg>
